<svg id="Layer_1" data-name="Layer 1" xmlns="http://www.w3.org/2000/svg" viewBox="0 0 1039.36 222.02"><defs><style>.cls-1{fill:red;}.cls-2{fill:#a6a6a6;}</style></defs><title>logo</title><path d="M440.62,642.49c2.89-9.76,4.71-19.77,6.73-29.72.82-4,2.37-5.38,6.62-5.38q233.24.18,466.47.1c5.85,0,5.89,0,4.65,5.85-2,9.43-4.16,18.84-6.09,28.3-.59,2.94-2,4.28-5,4a33.65,33.65,0,0,0-3.48,0q-201.85,0-403.71-.13-31.55-.08-63.11-.42c-1,0-2.06-.16-3.08-.24Z" transform="translate(-440.62 -428.93)"/><path d="M1291.37,585.51c2.38-5.73,3.3-11.3,4.46-16.75q12.36-58.15,24.55-116.36c1.12-5.31,1.08-10.47-1.6-15.4a11.64,11.64,0,0,1-.91-2.54c-1-3.85-.44-4.71,3.49-4.67,15.62.17,31.24.47,46.86.59,2.77,0,3.88,1.63,4.78,3.71a116,116,0,0,1,5.77,19.21c2.7,11.55,6.09,22.9,9.85,34.14.35,1,.3,2.62,1.71,2.72,1.06.07,1.47-1.3,2.07-2.11,12.95-17.68,26-35.32,38.79-53.1,2.59-3.6,5.64-5.32,10-5.28,11.36.1,22.73,0,34.1.06,4.77,0,5.14.53,4.24,5.22-6.68,34.89-14.47,69.54-22.15,104.22-3.54,16-7.41,31.84-11,47.8-.79,3.53-2.38,4.93-6.06,4.8-7-.24-14-.18-20.92,0-3.44.07-4.1-1.1-3.44-4.39,7.71-38.36,15.36-76.72,23.66-115,.19-.85.75-1.68,0-3-1.71,2.27-3.32,4.38-4.9,6.5-11.63,15.62-23.31,31.19-34.83,46.89-3,4-6.48,5.94-11.5,5.66a137,137,0,0,0-14.33,0c-3.38.17-5-1-6.09-4.29-5.69-18.06-11.62-36-17.47-54-.27-.84-.6-1.66-1-2.89-1.42,1.52-1.5,3.18-1.87,4.68-6.83,27.36-12.07,55.06-17.73,82.67q-3.18,15.51-6.37,31c-1.2,5.83-1.69,6.15-7.65,6.25-11.75.19-23.49-.34-35.24.41-5.9.37-11.86-.39-17.79-.44-2.7,0-3.44-1.72-4.16-3.76-4.88-13.86-8.87-28-12.92-42.1-1.56-5.44-3-10.91-4.47-16.39-1.5-5.73-1.47-5.75-7.56-5.76q-23.06,0-46.12-.07c-1.35,0-3.16.64-3.94-.74s.76-2.56,1.53-3.67c4.55-6.57,9.26-13,13.67-19.69a7,7,0,0,1,6.72-3.44c7.49.16,15-.08,22.47.06,2.89.06,3.6-.81,2.87-3.56-2.83-10.58-5.65-21.15-9.17-31.52-.33-.95-.37-2.31-1.49-2.52-1.36-.25-1.87,1.19-2.51,2.07q-17.36,24-34.65,48-28.56,39.74-57,79.52a8.26,8.26,0,0,1-6,3.6c-7.87,1.11-15.72.57-23.56-.15-3.89-.36-4.24-1.26-1.9-4.47q51.95-71,104-142c2.66-3.63,4.64-6.93,2.54-11.59-1.31-2.91-.11-4.47,3.39-4.44,9.55.08,19.11-.11,28.67-.14,8.85,0,10.09.95,12.62,9.27q20.36,67.08,40.77,134.16C1287.84,576.62,1288.85,581,1291.37,585.51Z" transform="translate(-440.62 -428.93)"/><path class="cls-1" d="M711.82,429.69c21.06,0,42.12.44,63.16-.15,16.56-.46,23.81,8.14,21.27,23.92s-5,31.81-10.1,47.15c-.65,2-1.42,3.87-2.22,5.77-4.37,10.35-12.14,15.69-23.47,15.69-10.46,0-20.92,0-31.38-.1-3,0-3.85.8-2.17,3.47s3.28,5.55,5.07,8.22c10.47,15.64,21.2,31.1,31.19,47.06,1.57,2.51,2.94,5.14,4.34,7.75,1.09,2,.58,3.17-1.9,3.17-10.07,0-20.15,0-30.22,0-2.39,0-3.34-1.6-4.42-3.21-10.71-16-20.94-32.2-31.06-48.52-1.43-2.3-3.09-4.46-4.47-6.78-6.11-10.24-15.57-12.74-26.64-11.64a28.32,28.32,0,0,1-5.78.41c-4-.45-5.27,1.6-6,5.17-4,19.8-7.75,39.67-12.8,59.26-1.07,4.14-3,5.65-7.27,5.39-6.31-.37-12.65-.12-19-.24-5.74-.1-6-.59-5.08-6.44,1.57-9.67,4.1-19.13,6.19-28.69Q630.77,503,642.37,449.58a16.66,16.66,0,0,0-1-10.21c-.55-1.3-1.18-2.58-1.64-3.92-1.55-4.5-.84-5.58,3.93-5.62,12.92-.1,25.84-.11,38.75-.14C692.19,429.67,702,429.69,711.82,429.69Zm4.64,24.36c-15.3,0-27.43-.11-39.56.65-2.58.17-3.94,1-4.61,3.56-2.94,11.48-5.65,23-7.89,34.63-.47,2.44.28,3.3,2.66,3.36,5.42.16,10.83.61,16.24.66,20.91.19,41.8-1.22,62.72-.56,7.75.25,10-1.47,12.11-9.08a165.12,165.12,0,0,0,5.33-26.07c.59-4.93-.51-6.23-5.66-6.32C743,454.59,728.14,453.59,716.46,454.05Z" transform="translate(-440.62 -428.93)"/><path class="cls-1" d="M897.94,592.21c-16.12-1-32.26-.78-48.39-.41-11.23.26-22.45.52-33.68.55A121.75,121.75,0,0,1,797,590.89c-13.19-2-19.07-8.55-19.27-21.85-.14-9.83,1.61-19.5,3.78-29,6.33-27.86,12.86-55.68,19.35-83.51.52-2.25,1.32-4.44,2-6.64,5-15.06,11-18.94,27.45-20.08,27-1.85,53.93.26,80.9,0,9.53-.09,19-1.27,28.62-.16,10.72,1.25,15.44,6.09,15.67,16.74.25,12.4-3.19,24.21-5.56,36.18-5.41,27.4-11.23,54.72-17.73,81.89-.81,3.37-2,6.65-2.94,10-3.45,12-11.59,17.77-24,17.77Zm-9.86-26.43c9.87-.08,12.31.11,15.21-11,.39-1.5.81-3,1.13-4.5q7.92-37.4,15.81-74.81c1-4.66,2.12-9.29,2.91-14,.82-4.88-.33-6-5.18-7-4.3-.9-8.49.2-12.73.18q-31.38-.09-62.77.11c-7.86.05-10.84,2.57-12.74,10.24-1,4.12-1.76,8.31-2.62,12.47-5.34,25.84-10.74,51.67-16,77.53-1.4,6.93,1,9.8,8,10.61a26.61,26.61,0,0,0,3.1.12Z" transform="translate(-440.62 -428.93)"/><path class="cls-1" d="M501.24,429.81c26.35-.93,54.89-.71,83.43-.63,11.35,0,22.71.36,34.06.66,9.33.25,14.64,5.74,15.1,15.13.41,8.35-1.53,16.37-3,24.46-1.77,9.49-3.1,19.07-6.14,28.28-5.59,16.93-15.57,24.25-33.4,24.28-25.82,0-51.64-1.27-77.47-.67-4.77.11-9.54.65-14.3.57-3.32,0-4.46,1.47-5.07,4.42-3.6,17.4-7.32,34.77-11,52.14-.45,2.14-.94,4.28-1.6,6.37-2.08,6.55-2.53,7-9.45,7.43a135.36,135.36,0,0,1-19.72-.61c-2.74-.21-2.53-1.91-2.29-3.85,1.4-11,4.48-21.67,6.61-32.53,6.84-34.87,15.85-69.27,22.58-104.17a21,21,0,0,0-1.2-12.85A19.17,19.17,0,0,1,477,434.6c-.77-3.65,0-4.71,3.8-4.77C486.91,429.74,493,429.81,501.24,429.81Zm45.24,66.4v0c13.3,0,26.6-.11,39.9.08,3.45.05,5.47-1.06,7-4.11,4.78-9.68,5.52-20.31,7.39-30.64,1-5.69-1-7.8-6.81-7.27-11.64,1.07-23.21-.25-34.81-.13-14.84.15-29.68-.73-44.52.5-3,.25-4.21,1.68-4.94,4.34a316.77,316.77,0,0,0-7.28,32.77c-.58,3.47.23,4.61,3.8,4.57C519.62,496.13,533.05,496.21,546.48,496.21Z" transform="translate(-440.62 -428.93)"/><path d="M1030.72,429.68c14.59,0,29.18.15,43.77-.05,9.54-.13,19-.81,28.6-.14,14.69,1,18.29,8,18.7,21.31.2,6.82-1.59,13.51-3.77,20-.8,2.39-2.06,3.53-4.76,3.47-7.48-.16-15-.19-22.46,0-3.44.06-4.34-1.42-3.75-4.49.65-3.41,1.23-6.83,1.81-10.26.46-2.78-.5-4.32-3.55-4.71-11.07-1.42-22.17-.81-33.26-.73-11.87.09-23.74.51-35.61.6-3,0-3.53,1.82-4,4.1Q1005.73,489.89,999,521c-2.93,13.58-5.74,27.19-8.84,40.73-.76,3.33.19,4,3.29,4,14.6,0,29.19,0,43.78.2,7.08.12,14.15.55,21.24-.14,5.74-.56,7.78-2,9.4-7.44a67.7,67.7,0,0,0,1.86-7.49c.54-3.16,1.94-4.61,5.42-4.5,7.61.24,15.23.09,22.85.07,1.8,0,3.49.06,3.26,2.58-1,11-2.91,21.76-9.74,30.88-6.65,8.87-16.45,11.1-26.74,11.63-7,.37-14,.14-20.92.12-26.46-.07-52.91,1.37-79.38.58-2.31-.07-4.62-.4-6.94-.51-5-.24-5.48-.77-4.46-5.86q4.59-22.9,9.31-45.76c6.25-30.24,13.83-60.19,19.4-90.57.73-4,1.51-8.13-1.6-11.78-.75-.88-.82-2.4-1-3.65-.55-3.09.62-4.44,4-4.42,15.88.11,31.76,0,47.65,0Z" transform="translate(-440.62 -428.93)"/><path class="cls-2" d="M1301.82,602.72l22.58,31c1-4.38,1.88-8,2.7-11.66,1-4.27,2-8.53,2.83-12.82.77-4,3.78-3.36,6.35-2.94,3,.48,1.48,2.83,1.16,4.35q-3.89,18.32-8,36.59c-.3,1.3.08,3.4-1.45,3.7-1.76.35-2.2-1.84-3.06-3-6.41-8.7-12.75-17.45-19.06-26.12-1.66.32-1.51,1.52-1.71,2.45-1.53,6.92-3,13.84-4.55,20.75a5,5,0,0,1-7.07,3.35c-1.23-.63-1.15-1.63-.93-2.63q4.61-20.93,9.28-41.84C1300.94,603.64,1301.2,603.47,1301.82,602.72Z" transform="translate(-440.62 -428.93)"/><path class="cls-2" d="M1205.66,606a82.7,82.7,0,0,1,8.5.43c5.25.81,8.47,3.76,9.27,8a14.18,14.18,0,0,1-6.84,14.83c-4.74,2.76-4.73,2.76-2.35,7.92,1,2.11,2,4.2,2.75,6.38.51,1.5,2.58,3.15.27,4.71-2,1.33-6.57.19-7.55-1.86-1.79-3.71-3.44-7.49-5-11.29-.85-2.05-1.81-3.61-4.45-3.38s-2.79,2.21-3.21,4.1c-.68,3.15-1.35,6.3-2.13,9.42a4.93,4.93,0,0,1-7,3.09c-1.45-.72-1.13-1.9-.89-3,2.62-12.07,5.28-24.14,7.89-36.22.5-2.31,1.88-3.15,4.15-3.05s4.39,0,6.59,0Zm2.61,8v0h-1.93c-4,.05-7.4,4.81-6.28,8.68a1.38,1.38,0,0,0,1.33,1.15c3.82.07,7.72.68,11.33-1.15,2.54-1.28,3.32-3.51,2.81-6.12s-2.64-2.43-4.57-2.53C1210.06,613.89,1209.16,613.93,1208.27,613.93Z" transform="translate(-440.62 -428.93)"/><path class="cls-2" d="M1279.37,623.21c-.08,13.63-12.7,25.92-26.26,25.58a17,17,0,0,1-16.45-18.21,27.49,27.49,0,0,1,23.49-25C1270.59,604.05,1279.44,612.19,1279.37,623.21Zm-7.9.43c0-7.37-5.31-11.68-12.51-10.07-7.53,1.67-13.92,9.1-14.42,16.77-.4,6,3.63,10.49,9.66,10.62C1263.08,641.16,1271.42,632.79,1271.47,623.64Z" transform="translate(-440.62 -428.93)"/><path class="cls-2" d="M967.41,606.07c3.35,0,6.7-.08,10.05,0,1.48.06,3.95-.73,3.7,2-.23,2.34.08,5.62-3.69,5.75-4.51.16-9,0-13.54.09a6.25,6.25,0,0,0-5.92,7.72c.39,1.55,1.64,1.45,2.77,1.47,3.23,0,6.45-.06,9.67.07,1.5.06,3.92-.7,3.74,2-.16,2.37.16,5.58-3.67,5.71s-7.48,0-11.22.08c-3.06.05-6.49,6.19-5,8.91.62,1.14,1.75.93,2.75.94,4.25,0,8.51,0,12.76.06,1.61,0,4.15-.7,3.77,2.32-.3,2.43-.26,5.43-4.07,5.43-5.16,0-10.31,0-15.47,0-2.32,0-4.65,0-7-.06-1.95,0-2.77-1-2.32-3q4.05-18.27,8-36.56c.47-2.17,1.75-3,3.84-2.92,3.61,0,7.22,0,10.84,0Z" transform="translate(-440.62 -428.93)"/><path class="cls-2" d="M1050.9,648.6c-3.48,0-7,0-10.44,0-2.82,0-4-.94-3.26-4q3.94-17.29,7.56-34.66c.62-3,2.08-4,5-3.93,6.57.14,13.15,0,19.73.08,1.57,0,4.15-.8,3.92,2.15-.19,2.55-.09,5.7-4.18,5.65-4.65-.06-9.29,0-13.93,0-3,0-6.26,5.59-4.9,8.19.6,1.14,1.74,1,2.73,1,3.23,0,6.45-.05,9.67.07,1.52.05,3.94-.57,3.72,2-.19,2.36,0,5.55-3.78,5.66-3.48.09-7,0-10.45.07s-7.14,5.42-5.87,8.7c.55,1.43,1.88,1.14,3,1.15,4.26,0,8.51,0,12.77.06,1.51,0,3.9-.58,3.65,2.07-.23,2.35.13,5.57-3.74,5.64s-7.48,0-11.22,0Z" transform="translate(-440.62 -428.93)"/><path class="cls-2" d="M1101.65,648.81c-10.86,0-18.12-7.55-17.83-18.44.39-14.78,16.25-27.35,30.67-24.3a16.58,16.58,0,0,1,8.42,4.47c1,1,3,2.25,1.15,3.73-1.66,1.34-3,4.29-6.13,2.38-9.19-5.65-19.63-2.62-24.53,7.08a11.94,11.94,0,0,0-.64,1.41c-1.54,4.61-2.09,9.27,1.65,13s8.7,3.35,13.43,1.92a12.44,12.44,0,0,0,4.4-2.37c2.77-2.4,4.4-1.2,6.21,1.25,2.18,2.95-.32,3.9-2,5.07A23.87,23.87,0,0,1,1101.65,648.81Z" transform="translate(-440.62 -428.93)"/><path class="cls-2" d="M1398,648.81c-12.25,0-20.12-9.78-17.59-21.73,3-14,17.8-24.17,30.5-21a15.82,15.82,0,0,1,8,4.38c.93,1,3.68,2,1.38,3.81-1.74,1.33-3.62,4.94-6.41,2.07-7.75-8-24.46.47-26,12.44-1.15,9.21,6.44,14.82,15.65,11.45a31.16,31.16,0,0,0,5.75-3.13c1.34-.85,2.35-1.15,3.76,0,3.69,3.11,3.72,4-.31,6.82C1408.31,647.05,1403.47,649,1398,648.81Z" transform="translate(-440.62 -428.93)"/><path class="cls-2" d="M1447.84,648.67c-6.67,0-11.55-3.12-13.2-7.78-1-2.76.2-4,2.62-5,2.21-.86,3.87-1.26,4.7,1.73s3.36,3.28,5.93,3.19c2.95-.1,5.74-.84,7.31-3.56,1.35-2.34-.62-3.56-2.22-4.61-3.21-2.13-6.75-3.74-9.5-6.59-5.28-5.46-5.08-11.44.71-16.35,5.58-4.75,15-5.28,20.14-1.13a10.44,10.44,0,0,1,3.44,4.58c.8,2.21.85,3.94-1.87,4.91-2.29.81-4.06,1.84-5.49-1.52-1.8-4.2-9.69-4.18-12.11-.26a2.94,2.94,0,0,0,.45,3.87,17.1,17.1,0,0,0,4.56,3.54,42.48,42.48,0,0,1,4.64,2.78c7.81,5.61,7.3,14.58-1.06,19.45A20.08,20.08,0,0,1,1447.84,648.67Z" transform="translate(-440.62 -428.93)"/><path class="cls-2" d="M1160.2,606.08c4.64,0,9.28,0,13.92,0,1.63,0,3.8-.2,3.47,2.36-.27,2.14,0,5-3.26,5.32a39.9,39.9,0,0,1-7.33.08c-3.38-.31-4.81,1.09-5.44,4.35-1.71,8.71-3.69,17.36-5.61,26-.43,2-.7,4-3.51,4.36-4.17.45-5.18-.44-4.31-4.54,1.84-8.68,3.66-17.36,5.69-26,.75-3.15-.14-4.35-3.31-4.15a29.94,29.94,0,0,1-4.64,0c-1.87-.16-4.48.8-4.56-2.57-.08-3.68,1.31-5.19,5-5.23C1150.91,606,1155.55,606.07,1160.2,606.08Z" transform="translate(-440.62 -428.93)"/><path class="cls-2" d="M1004.19,648.6c-3.49,0-7,0-10.45,0-2.56,0-3.85-.67-3.17-3.65,2.69-11.79,5.18-23.63,7.82-35.43a4.74,4.74,0,0,1,6.82-3.17c1.79.91,1.12,2.4.84,3.72-1.89,8.8-3.68,17.63-5.79,26.38-.88,3.63.25,4.58,3.71,4.39,4-.21,8-.14,12,0,1.55,0,4.11-.94,3.84,2.19-.22,2.53-.32,5.44-4,5.51-3.87.07-7.74,0-11.61,0Z" transform="translate(-440.62 -428.93)"/><path class="cls-2" d="M1353.73,648.56c-2.72.19-4-.71-3.34-3.6,2.68-12,5.27-24.1,7.9-36.15.83-3.8,3.91-2.84,6.25-2.59,3,.33,1.57,2.68,1.25,4.21-2.41,11.31-5,22.59-7.35,33.9C1357.85,647.09,1356.81,648.94,1353.73,648.56Z" transform="translate(-440.62 -428.93)"/></svg>